<svg width="259" height="36" viewBox="0 0 259 36" fill="none" xmlns="http://www.w3.org/2000/svg">
<g clip-path="url(#clip0_4001_6)">
<path d="M57.0359 32.0097C53.4666 32.0097 50.49 30.7954 48.1054 28.3661C45.7208 25.9376 44.5293 22.9329 44.5293 19.3527C44.5293 15.7726 45.7208 12.7687 48.1054 10.3394C50.49 7.91083 53.4666 6.6958 57.0359 6.6958C59.3412 6.6958 61.4412 7.25517 63.3365 8.37392C65.231 9.49342 66.6679 10.995 67.6473 12.881L62.3888 15.9973C61.9154 15.0069 61.1965 14.2229 60.233 13.6482C59.2695 13.0728 58.1882 12.7855 56.9884 12.7855C55.1565 12.7855 53.6403 13.4014 52.4404 14.6309C51.2398 15.862 50.6403 17.4354 50.6403 19.3535C50.6403 21.2716 51.2398 22.7976 52.4404 24.0279C53.6403 25.259 55.1565 25.8742 56.9884 25.8742C58.2199 25.8742 59.3171 25.5945 60.2806 25.0351C61.2441 24.4765 61.9629 23.7009 62.4364 22.7097L67.7424 25.7779C66.7004 27.6638 65.2317 29.1746 63.3372 30.3079C61.4419 31.4419 59.3412 32.0104 57.0367 32.0104L57.0359 32.0097Z" fill="#03045E"/>
<path d="M74.5897 21.8933C75.4113 24.898 77.6373 26.4004 81.2693 26.4004C83.6063 26.4004 85.3748 25.6018 86.5754 24.0032L91.5024 26.8795C89.1646 30.2999 85.7229 32.0094 81.1749 32.0094C77.2582 32.0094 74.1163 30.8104 71.7475 28.414C69.3788 26.0168 68.1948 22.9968 68.1948 19.3532C68.1948 15.7097 69.363 12.7294 71.7 10.3162C74.037 7.90291 77.037 6.69629 80.7015 6.69629C84.1749 6.69629 87.0413 7.91132 89.2997 10.3398C91.5575 12.7691 92.6871 15.7739 92.6871 19.3532C92.6871 20.1525 92.6078 20.9992 92.45 21.8941H74.5897V21.8933ZM74.4953 17.0989H86.5761C86.228 15.4689 85.5099 14.2547 84.4203 13.4554C83.3307 12.6568 82.0916 12.2564 80.7022 12.2564C79.0591 12.2564 77.7007 12.6805 76.6277 13.5272C75.554 14.3747 74.8434 15.5645 74.4953 17.0989Z" fill="#03045E"/>
<path d="M95.2471 31.3387V0.178223H101.358V31.3387H95.2471Z" fill="#03045E"/>
<path d="M105.527 31.3387V0.178223H111.638V31.3387H105.527Z" fill="#03045E"/>
<path d="M127.251 13.3117H121.897V23.2841C121.897 24.1155 122.103 24.7223 122.513 25.1059C122.923 25.4895 123.524 25.705 124.313 25.7532C125.102 25.8013 126.082 25.7937 127.251 25.7295V31.3385C123.05 31.8176 120.089 31.4179 118.369 30.1395C116.647 28.8618 115.786 26.5762 115.786 23.2841V0.654785H121.897V7.36648H127.251V13.3117Z" fill="#03045E"/>
<path d="M136.63 11.49C137.198 9.95632 138.138 8.80548 139.449 8.03826C140.759 7.2718 142.22 6.88818 143.831 6.88818V13.7917C141.967 13.5685 140.302 13.9522 138.833 14.9418C137.364 15.9329 136.631 17.5789 136.631 19.8798V31.3378H130.52V7.36732H136.631V11.49H136.63Z" fill="#03045E"/>
<path d="M163.704 7.36751H169.815V31.3387H163.704V28.5098C161.872 30.8435 159.299 32.0097 155.982 32.0097C152.666 32.0097 150.115 30.787 147.857 28.3417C145.6 25.8963 144.471 22.9 144.471 19.3527C144.471 15.8055 145.6 12.8084 147.857 10.3638C150.115 7.91847 152.824 6.6958 155.982 6.6958C159.299 6.6958 161.872 7.86269 163.704 10.1957V7.36674V7.36751ZM152.429 24.219C153.66 25.4821 155.224 26.1133 157.119 26.1133C159.013 26.1133 160.584 25.4821 161.833 24.219C163.08 22.9566 163.704 21.335 163.704 19.3527C163.704 17.3705 163.08 15.7497 161.833 14.4865C160.584 13.2241 159.014 12.5929 157.119 12.5929C155.223 12.5929 153.661 13.2241 152.429 14.4865C151.197 15.7497 150.581 17.3712 150.581 19.3527C150.581 21.3342 151.196 22.9566 152.429 24.219Z" fill="#03045E"/>
<path d="M184.883 32.0097C181.313 32.0097 178.337 30.7954 175.952 28.3661C173.568 25.9376 172.376 22.9329 172.376 19.3527C172.376 15.7726 173.568 12.7687 175.952 10.3394C178.337 7.91083 181.313 6.6958 184.883 6.6958C187.188 6.6958 189.288 7.25517 191.183 8.37392C193.078 9.49342 194.515 10.995 195.494 12.881L190.235 15.9973C189.762 15.0069 189.043 14.2229 188.08 13.6482C187.116 13.0728 186.035 12.7855 184.835 12.7855C183.003 12.7855 181.487 13.4014 180.287 14.6309C179.087 15.862 178.487 17.4354 178.487 19.3535C178.487 21.2716 179.087 22.7976 180.287 24.0279C181.487 25.259 183.003 25.8742 184.835 25.8742C186.067 25.8742 187.164 25.5945 188.127 25.0351C189.091 24.4765 189.81 23.7009 190.283 22.7097L195.589 25.7779C194.547 27.6638 193.078 29.1746 191.184 30.3079C189.289 31.4419 187.188 32.0104 184.883 32.0104L184.883 32.0097Z" fill="#03045E"/>
<path d="M219.682 31.3385H212.575L203.954 20.4475V31.3385H197.843V0.654785H203.954V17.9556L212.102 7.36724H219.397L209.876 19.2096L219.682 31.3385Z" fill="#03045E"/>
<path d="M224.749 21.8933C225.571 24.898 227.797 26.4004 231.429 26.4004C233.766 26.4004 235.534 25.6018 236.735 24.0032L241.663 26.8795C239.325 30.2999 235.883 32.0094 231.335 32.0094C227.418 32.0094 224.276 30.8104 221.907 28.414C219.538 26.0168 218.354 22.9968 218.354 19.3532C218.354 15.7097 219.523 12.7294 221.86 10.3162C224.197 7.90291 227.197 6.69629 230.861 6.69629C234.335 6.69629 237.2 7.91132 239.459 10.3398C241.717 12.7691 242.848 15.7739 242.848 19.3532C242.848 20.1525 242.768 20.9992 242.61 21.8941H224.75L224.749 21.8933ZM224.655 17.0989H236.735C236.388 15.4689 235.67 14.2547 234.58 13.4554C233.49 12.6568 232.251 12.2564 230.862 12.2564C229.219 12.2564 227.86 12.6805 226.787 13.5272C225.714 14.3747 225.003 15.5645 224.655 17.0989Z" fill="#03045E"/>
<path d="M251.8 11.49C252.368 9.95632 253.307 8.80548 254.618 8.03826C255.928 7.2718 257.39 6.88818 259 6.88818V13.7917C257.136 13.5685 255.471 13.9522 254.002 14.9418C252.533 15.9329 251.799 17.5789 251.799 19.8798V31.3378H245.688V7.36732H251.799V11.49H251.8Z" fill="#03045E"/>
<path d="M17.7863 0C7.96324 0 0 8.05893 0 18C0 27.9411 7.96324 36 17.7863 36H33.7173V0H17.7863ZM25.8824 25.6562C21.7045 29.8844 14.9305 29.8844 10.7526 25.6562C6.57462 21.4281 6.57462 14.5727 10.7526 10.3438C14.9305 6.11564 21.7045 6.11564 25.8824 10.3438L33.4477 18L25.8824 25.6562ZM23.0878 18C23.0878 20.6662 20.9516 22.828 18.3171 22.828C15.6826 22.828 13.5464 20.6662 13.5464 18C13.5464 15.3338 15.6826 13.172 18.3171 13.172C20.9516 13.172 23.0878 15.3338 23.0878 18Z" fill="#00B5D8"/>
</g>
<defs>
<clipPath id="clip0_4001_6">
<rect width="259" height="36" fill="white"/>
</clipPath>
</defs>
</svg>
