<svg width="259" height="36" viewBox="0 0 259 36" fill="none" xmlns="http://www.w3.org/2000/svg">
<g clip-path="url(#clip0_103_7)">
<path d="M57.0359 32.0095C53.4666 32.0095 50.49 30.7952 48.1054 28.366C45.7208 25.9374 44.5293 22.9327 44.5293 19.3526C44.5293 15.7724 45.7208 12.7685 48.1054 10.3392C50.49 7.91068 53.4666 6.69565 57.0359 6.69565C59.3412 6.69565 61.4412 7.25502 63.3365 8.37376C65.231 9.49327 66.6679 10.9949 67.6473 12.8808L62.3888 15.9971C61.9154 15.0068 61.1965 14.2227 60.233 13.6481C59.2695 13.0726 58.1882 12.7853 56.9884 12.7853C55.1565 12.7853 53.6403 13.4012 52.4404 14.6308C51.2398 15.8619 50.6403 17.4353 50.6403 19.3533C50.6403 21.2714 51.2398 22.7975 52.4404 24.0278C53.6403 25.2588 55.1565 25.874 56.9884 25.874C58.2199 25.874 59.3171 25.5943 60.2806 25.0349C61.2441 24.4763 61.9629 23.7007 62.4364 22.7096L67.7424 25.7777C66.7004 27.6637 65.2317 29.1744 63.3372 30.3077C61.4419 31.4417 59.3412 32.0103 57.0367 32.0103L57.0359 32.0095Z" fill="white"/>
<path d="M74.5897 21.8934C75.4113 24.8982 77.6373 26.4005 81.2693 26.4005C83.6063 26.4005 85.3748 25.6019 86.5754 24.0033L91.5024 26.8796C89.1646 30.3001 85.7229 32.0095 81.1749 32.0095C77.2582 32.0095 74.1163 30.8105 71.7475 28.4141C69.3788 26.0169 68.1948 22.9969 68.1948 19.3533C68.1948 15.7098 69.363 12.7295 71.7 10.3163C74.037 7.90303 77.037 6.69641 80.7015 6.69641C84.1749 6.69641 87.0413 7.91144 89.2997 10.34C91.5575 12.7693 92.6871 15.774 92.6871 19.3533C92.6871 20.1527 92.6078 20.9994 92.45 21.8942H74.5897V21.8934ZM74.4953 17.099H86.5761C86.228 15.4691 85.5099 14.2548 84.4203 13.4555C83.3307 12.6569 82.0916 12.2565 80.7022 12.2565C79.0591 12.2565 77.7007 12.6806 76.6277 13.5273C75.554 14.3748 74.8434 15.5646 74.4953 17.099Z" fill="white"/>
<path d="M95.2471 31.3386V0.17804H101.358V31.3386H95.2471Z" fill="white"/>
<path d="M105.527 31.3386V0.17804H111.638V31.3386H105.527Z" fill="white"/>
<path d="M127.251 13.3118H121.897V23.2842C121.897 24.1157 122.103 24.7224 122.513 25.106C122.923 25.4896 123.524 25.7051 124.313 25.7533C125.102 25.8014 126.082 25.7938 127.251 25.7296V31.3386C123.05 31.8177 120.089 31.4181 118.369 30.1396C116.647 28.8619 115.786 26.5763 115.786 23.2842V0.654907H121.897V7.3666H127.251V13.3118Z" fill="white"/>
<path d="M136.63 11.49C137.198 9.95635 138.138 8.80551 139.449 8.03829C140.759 7.27183 142.22 6.88821 143.831 6.88821V13.7917C141.967 13.5686 140.302 13.9522 138.833 14.9418C137.364 15.9329 136.631 17.5789 136.631 19.8799V31.3378H130.52V7.36735H136.631V11.49H136.63Z" fill="white"/>
<path d="M163.704 7.36735H169.815V31.3386H163.704V28.5096C161.872 30.8434 159.299 32.0095 155.982 32.0095C152.666 32.0095 150.115 30.7868 147.857 28.3415C145.6 25.8962 144.471 22.8999 144.471 19.3526C144.471 15.8053 145.6 12.8082 147.857 10.3637C150.115 7.91832 152.824 6.69565 155.982 6.69565C159.299 6.69565 161.872 7.86253 163.704 10.1955V7.36659V7.36735ZM152.429 24.2188C153.66 25.482 155.224 26.1132 157.119 26.1132C159.013 26.1132 160.584 25.482 161.833 24.2188C163.08 22.9564 163.704 21.3348 163.704 19.3526C163.704 17.3703 163.08 15.7495 161.833 14.4864C160.584 13.2239 159.014 12.5927 157.119 12.5927C155.223 12.5927 153.661 13.2239 152.429 14.4864C151.197 15.7495 150.581 17.3711 150.581 19.3526C150.581 21.3341 151.196 22.9564 152.429 24.2188Z" fill="white"/>
<path d="M184.883 32.0095C181.313 32.0095 178.337 30.7952 175.952 28.366C173.568 25.9374 172.376 22.9327 172.376 19.3526C172.376 15.7724 173.568 12.7685 175.952 10.3392C178.337 7.91068 181.313 6.69565 184.883 6.69565C187.188 6.69565 189.288 7.25502 191.183 8.37376C193.078 9.49327 194.515 10.9949 195.494 12.8808L190.235 15.9971C189.762 15.0068 189.043 14.2227 188.08 13.6481C187.116 13.0726 186.035 12.7853 184.835 12.7853C183.003 12.7853 181.487 13.4012 180.287 14.6308C179.087 15.8619 178.487 17.4353 178.487 19.3533C178.487 21.2714 179.087 22.7975 180.287 24.0278C181.487 25.2588 183.003 25.874 184.835 25.874C186.067 25.874 187.164 25.5943 188.127 25.0349C189.091 24.4763 189.81 23.7007 190.283 22.7096L195.589 25.7777C194.547 27.6637 193.078 29.1744 191.184 30.3077C189.289 31.4417 187.188 32.0103 184.883 32.0103L184.883 32.0095Z" fill="white"/>
<path d="M219.682 31.3386H212.575L203.954 20.4476V31.3386H197.843V0.654907H203.954V17.9557L212.102 7.36737H219.397L209.876 19.2097L219.682 31.3386Z" fill="white"/>
<path d="M224.749 21.8934C225.571 24.8982 227.797 26.4005 231.429 26.4005C233.766 26.4005 235.534 25.6019 236.735 24.0033L241.663 26.8796C239.325 30.3001 235.883 32.0095 231.335 32.0095C227.418 32.0095 224.276 30.8105 221.907 28.4141C219.538 26.0169 218.354 22.9969 218.354 19.3533C218.354 15.7098 219.523 12.7295 221.86 10.3163C224.197 7.90303 227.197 6.69641 230.861 6.69641C234.335 6.69641 237.2 7.91144 239.459 10.34C241.717 12.7693 242.848 15.774 242.848 19.3533C242.848 20.1527 242.768 20.9994 242.61 21.8942H224.75L224.749 21.8934ZM224.655 17.099H236.735C236.388 15.4691 235.67 14.2548 234.58 13.4555C233.49 12.6569 232.251 12.2565 230.862 12.2565C229.219 12.2565 227.86 12.6806 226.787 13.5273C225.714 14.3748 225.003 15.5646 224.655 17.099Z" fill="white"/>
<path d="M251.8 11.49C252.368 9.95635 253.307 8.80551 254.618 8.03829C255.928 7.27183 257.39 6.88821 259 6.88821V13.7917C257.136 13.5686 255.471 13.9522 254.002 14.9418C252.533 15.9329 251.799 17.5789 251.799 19.8799V31.3378H245.688V7.36735H251.799V11.49H251.8Z" fill="white"/>
<path d="M17.7863 0C7.96324 0 0 8.05893 0 18C0 27.9411 7.96324 36 17.7863 36H33.7173V0H17.7863ZM25.8824 25.6562C21.7045 29.8844 14.9305 29.8844 10.7526 25.6562C6.57462 21.4281 6.57462 14.5727 10.7526 10.3438C14.9305 6.11564 21.7045 6.11564 25.8824 10.3438L33.4477 18L25.8824 25.6562ZM23.0878 18C23.0878 20.6662 20.9516 22.828 18.3171 22.828C15.6826 22.828 13.5464 20.6662 13.5464 18C13.5464 15.3338 15.6826 13.172 18.3171 13.172C20.9516 13.172 23.0878 15.3338 23.0878 18Z" fill="#00B5D8"/>
</g>
<defs>
<clipPath id="clip0_103_7">
<rect width="259" height="36" fill="white"/>
</clipPath>
</defs>
</svg>
